<svg xmlns="http://www.w3.org/2000/svg" version="1.1" xmlns:xlink="http://www.w3.org/1999/xlink" xmlns:svgjs="http://svgjs.dev/svgjs" viewBox="0 0 800 800"><defs><filter id="uuunion-blur" x="-100%" y="-100%" width="400%" height="400%" color-interpolation-filters="sRGB">
        <feGaussianBlur in="SourceGraphic" stdDeviation="12 10" result="blur"></feGaussianBlur>
        <feDropShadow stdDeviation="18.461538461538463" in="blur" dx="15" dy="15" flood-color="hsl(197, 55%, 40%)" flood-opacity="0.63" x="0%" y="0%" width="100%" height="100%"></feDropShadow>
      </filter><filter id="uuunion-blur2" x="-100%" y="-100%" width="400%" height="400%" color-interpolation-filters="sRGB">
        <feGaussianBlur in="SourceGraphic" stdDeviation="12 10" result="blur"></feGaussianBlur>
        <feDropShadow stdDeviation="18.461538461538463" in="blur" dx="-15" dy="-15" flood-color="hsl(197, 55%, 40%)" flood-opacity="0.63" x="0%" y="0%" width="100%" height="100%"></feDropShadow>
      </filter><linearGradient gradientTransform="rotate(125, 0.5, 0.5)" x1="50%" y1="0%" x2="50%" y2="100%" id="uuunion-grad"><stop stop-color="hsl(171, 23%, 81%)" offset="10%"></stop><stop stop-color="hsl(197, 55%, 40%)" offset="90%"></stop></linearGradient><linearGradient gradientTransform="rotate(40, 0.5, 0.5)" x1="50%" y1="0%" x2="50%" y2="100%" id="uuunion-grad2"><stop stop-color="hsl(171, 23%, 81%)" offset="25%"></stop><stop stop-color="hsl(197, 55%, 40%)" offset="100%"></stop></linearGradient><linearGradient gradientTransform="rotate(206, 0.5, 0.5)" x1="50%" y1="0%" x2="50%" y2="100%" id="uuunion-grad3"><stop stop-color="hsl(171, 23%, 81%)" offset="0%"></stop><stop stop-color="hsl(197, 55%, 40%)" offset="75%"></stop></linearGradient></defs><path d="M-79.29 -79.71Q-64.55 -77.19 -49.82 -74.9 -35.08 -73.04 -20.35 -71.75 -5.62 -71.14 9.11 -71.26 23.84 -72.1 38.58 -73.6 53.31 -75.63 68.04 -78.01 82.78 -80.56 97.51 -83.07 112.25 -85.32 126.98 -87.13 141.71 -88.35 156.45 -88.88 171.18 -88.67 185.92 -87.75 200.65 -86.19 215.38 -84.12 230.12 -81.7 244.85 -79.15 259.59 -76.66 274.32 -74.45 289.05 -72.7 303.79 -71.55 318.52 -71.1 333.26 -71.38 347.99 -72.38 362.72 -74 377.46 -76.12 392.19 -78.56 406.93 -81.12 421.66 -83.59 436.39 -85.75 451.13 -87.45 465.86 -88.52 480.6 -88.89 495.33 -88.53 510.06 -87.46 524.8 -85.78 539.53 -83.61 554.27 -81.15 569 -78.59 583.73 -76.15 598.47 -74.03 613.2 -72.39 627.94 -71.39 642.67 -71.1 657.4 -71.54 672.14 -72.68 686.87 -74.43 701.61 -76.63 716.34 -79.12 731.07 -81.67 745.81 -84.09 760.54 -86.17 775.27 -87.74 790.01 -88.67 804.74 -88.88 819.48 -88.36 834.21 -87.14 848.94 -85.34 863.68 -83.09 858.32 -68.17 857.11 -53.24 860.28 -38.31 867.23 -23.38 876.62 -8.45 886.66 6.46 895.42 21.39 901.23 36.32 902.97 51.25 900.31 66.18 893.76 81.11 884.57 96.03 874.51 110.96 865.5 125.89 859.26 140.82 857 155.75 859.13 170.67 865.27 185.6 874.22 200.53 884.28 215.46 893.52 230.39 900.17 245.32 902.95 260.24 901.34 275.17 895.64 290.1 886.95 305.03 876.92 319.96 867.48 334.88 860.44 349.81 857.14 364.74 858.22 379.67 863.47 394.6 871.88 409.53 881.85 424.45 891.46 439.38 898.88 454.31 902.68 469.24 902.13 484.17 897.35 499.09 889.24 514.02 879.37 528.95 869.61 543.88 861.84 558.81 857.55 573.74 857.56 588.66 861.86 603.59 869.64 618.52 879.4 633.45 889.27 648.38 897.37 663.3 902.14 678.23 902.67 693.16 898.86 708.09 891.43 723.02 881.82 737.95 871.85 752.87 863.45 767.8 858.21 782.73 857.15 797.66 860.46 812.59 867.51 827.51 876.95 842.44 883.69 862.05 865.16 862.24 849.9 859.23 834.64 857.94 819.39 858.46 804.13 860.77 788.88 864.66 773.62 869.82 758.37 875.83 743.11 882.17 727.86 888.34 712.6 893.82 697.34 898.15 682.09 900.99 666.83 902.09 651.58 901.36 636.32 898.87 621.07 894.82 605.81 889.54 590.56 883.48 575.3 877.13 560.04 871.01 544.79 865.64 529.53 861.45 514.28 858.8 499.02 857.9 483.77 858.82 468.51 861.49 453.26 865.7 438 871.08 422.75 877.2 407.49 883.55 392.23 889.61 376.98 894.87 361.72 898.91 346.47 901.38 331.21 902.08 315.96 900.96 300.7 898.11 285.45 893.76 270.19 888.27 254.93 882.1 239.68 875.75 224.42 869.76 209.17 864.61 193.91 860.73 178.66 858.45 163.4 857.94 148.15 859.26 132.89 862.29 117.64 866.78 102.38 872.37 87.12 878.59 71.87 884.92 56.61 890.84 41.36 895.87 26.1 899.59 10.85 901.69 -4.4 901.99 -19.65 900.48 -34.91 897.28 -50.17 892.64 -65.42 886.96 -80.68 880.71 -80.3 865.7 -79.86 850.7 -79.45 835.69 -79.15 820.68 -79 805.68 -79.05 790.67 -79.28 775.66 -79.64 760.66 -80.07 745.65 -80.49 730.64 -80.82 715.64 -80.98 700.63 -80.96 685.62 -80.75 670.62 -80.4 655.61 -79.97 640.6 -79.54 625.6 -79.21 610.59 -79.02 595.58 -79.02 580.58 -79.21 565.57 -79.54 550.56 -79.97 535.56 -80.4 520.55 -80.75 505.54 -80.96 490.54 -80.98 475.53 -80.82 460.52 -80.49 445.52 -80.08 430.51 -79.64 415.5 -79.28 400.5 -79.05 385.49 -79 370.48 -79.14 355.48 -79.45 340.47 -79.86 325.46 -80.3 310.46 -80.68 295.45 -80.92 280.44 -80.99 265.44 -80.87 250.43 -80.58 235.42 -80.18 220.42 -79.74 205.41 -79.35 190.4 -79.09 175.4 -79 160.39 -79.09 145.38 -79.36 130.38 -79.76 115.37 -80.19 100.36 -80.59 85.36 -80.88 70.35 -80.99 55.34 -80.92 40.34 -80.67 25.33 -80.28 10.32 -79.85 -4.67 -79.44 -19.68 -79.14 -34.69 -79 -49.69 -79.05 -64.7 -79.29 -79.71" fill="url(#uuunion-grad)"></path><path d="M-79.29 -79.71Q-79.05 -64.7 -79 -49.69 -79.14 -34.69 -79.44 -19.68 -79.85 -4.67 -80.28 10.32 -80.67 25.33 -80.92 40.34 -80.99 55.34 -80.88 70.35 -80.59 85.36 -80.19 100.36 -79.76 115.37 -79.36 130.38 -79.09 145.38 -79 160.39 -79.09 175.4 -79.35 190.4 -79.74 205.41 -80.18 220.42 -80.58 235.42 -80.87 250.43 -80.99 265.44 -80.92 280.44 -80.68 295.45 -80.3 310.46 -79.86 325.46 -79.45 340.47 -79.14 355.48 -79 370.48 -79.05 385.49 -79.28 400.5 -69.46 403.45 -59.64 406.27 -49.82 408.87 -40 411.13 -30.17 412.99 -20.35 414.36 -1.95 415.42 1.23 415.48 13.32 408.57 25.38 400.81 37.45 392.32 49.56 383.22 61.75 373.68 74.04 363.9 86.46 354.08 99.03 344.42 111.76 335.12 124.67 326.35 137.74 318.24 150.97 310.89 164.33 304.36 177.8 298.66 191.34 293.73 204.9 289.5 218.44 285.84 231.91 282.61 245.26 279.61 258.45 276.67 271.42 273.59 284.14 270.19 296.58 266.32 308.72 261.85 320.55 256.68 332.09 250.76 343.33 244.08 354.32 236.67 365.09 228.62 375.7 220.03 386.21 211.03 396.69 201.81 407.2 192.52 417.83 183.34 428.65 174.43 439.73 165.95 451.14 158.02 462.93 150.72 475.15 144.1 487.83 138.18 500.97 132.93 514.58 128.28 528.63 124.13 543.09 120.36 557.9 116.81 572.99 113.34 588.28 109.77 603.68 105.96 619.08 101.78 634.38 97.11 649.47 91.87 664.26 86.01 678.65 79.51 692.55 72.41 705.9 64.75 718.66 56.64 730.78 48.17 742.25 39.49 753.11 30.74 763.37 22.05 773.1 13.58 782.38 5.43 791.31 -2.27 800 -9.48 789.66 -26.75 782 -44.02 779 -61.29 781.45 -78.56 788.7 -95.84 798.88 -113.11 805.76 -138.5 786.96 -145.04 771.74 -143.05 756.53 -140.81 741.31 -138.5 726.1 -136.32 710.88 -134.44 695.67 -133.01 680.45 -132.15 665.24 -131.93 650.03 -132.37 634.81 -133.43 619.6 -135.03 604.38 -137.03 589.17 -139.28 573.95 -141.58 558.74 -143.75 543.52 -145.62 528.31 -147.03 513.09 -147.86 497.88 -148.06 482.66 -147.59 467.45 -146.5 452.23 -144.89 437.02 -142.87 421.8 -140.62 406.59 -138.32 391.37 -136.15 376.16 -134.3 360.94 -132.91 345.73 -132.11 330.51 -131.94 315.3 -132.43 300.08 -133.54 284.87 -135.18 269.65 -137.21 254.44 -139.46 239.22 -141.76 224.01 -143.92 208.79 -145.75 193.58 -147.12 178.36 -147.9 163.15 -148.04 147.93 -147.52 132.72 -146.39 117.5 -144.74 102.29 -142.69 87.07 -140.43 71.86 -138.13 56.64 -135.99 41.43 -134.17 26.21 -132.83 11 -132.07 -4.21 -131.96 -19.42 -132.5 -34.64 -133.66 -49.85 -135.33 -65.07 -137.38 -80.28 -139.65 -95.5 -141.95 -110.71 -144.08 -125.93 -145.88 -135.38 -133.76 -117.18 -115.33 -107.53 -106.62 -98 -97.76 -88.58 -88.77 -79.29 -79.71" fill="url(#uuunion-grad2)" filter="url(#uuunion-blur)"></path><path d="M784.91 385.3Q794.73 384.63 804.55 384.52 814.37 384.99 824.19 386.01 834.01 387.55 843.83 389.54 853.65 391.92 863.47 394.6 871.88 409.53 881.85 424.45 891.46 439.38 898.88 454.31 902.68 469.24 902.13 484.17 897.35 499.09 889.24 514.02 879.37 528.95 869.61 543.88 861.84 558.81 857.55 573.74 857.56 588.66 861.86 603.59 869.64 618.52 879.4 633.45 889.27 648.38 897.37 663.3 902.14 678.23 902.67 693.16 898.86 708.09 891.43 723.02 881.82 737.95 871.85 752.87 863.45 767.8 858.21 782.73 857.15 797.66 860.46 812.59 867.51 827.51 876.95 842.44 884.32 862.26 867.67 862.89 853.67 859.82 839.67 858.16 825.67 858.02 811.67 859.42 797.67 862.24 783.67 866.3 769.67 871.32 755.67 876.94 741.66 882.77 727.66 888.41 713.66 893.47 699.66 897.58 685.66 900.47 671.66 901.93 657.66 901.87 643.66 900.28 629.66 897.28 615.66 893.07 601.66 887.95 587.66 882.28 573.66 876.45 559.66 870.87 545.66 865.92 531.66 861.95 517.66 859.24 503.66 857.98 489.66 858.25 475.66 860.03 461.66 863.21 447.66 867.55 433.66 872.77 419.66 878.48 405.66 884.3 391.66 889.83 377.66 894.66 363.66 898.48 349.66 901 335.66 902.07 321.66 901.59 307.66 899.61 293.66 896.27 279.66 891.79 265.66 886.49 251.66 880.73 237.66 874.93 223.66 869.48 209.66 864.76 195.66 861.1 181.66 858.76 167.66 857.9 153.66 858.58 139.66 860.75 125.66 864.26 111.66 868.87 97.66 874.25 83.66 880.03 69.66 885.81 55.66 891.19 41.66 895.78 27.66 899.28 6.54 896.69 -0.84 881.82 -1.12 871.68 -1.4 861.54 -1.64 851.4 -1.82 841.27 -1.71 826.06 -0.99 821 11.21 814.06 23.5 805.96 35.88 796.82 48.38 786.82 61.01 776.16 73.78 765.12 86.7 753.97 99.76 742.99 112.94 732.45 126.21 722.59 139.56 713.62 152.94 705.68 166.3 698.86 179.62 693.19 192.83 688.62 205.91 685.04 218.81 682.3 231.49 680.18 243.93 678.45 256.11 676.83 268.02 675.07 279.67 672.9 291.07 670.11 302.25 666.49 313.24 661.9 324.09 656.25 334.86 649.53 345.6 641.76 356.4 633.04 367.31 623.53 378.4 613.42 389.73 602.93 401.37 592.32 413.37 581.82 425.76 571.7 438.56 562.15 451.79 553.37 465.44 545.5 479.49 538.62 493.9 532.75 508.62 527.87 523.57 523.88 538.69 520.65 553.88 518 569.05 515.71 584.11 513.55 598.95 511.3 613.48 508.71 627.61 505.59 641.29 501.76 654.43 497.09 667.01 491.49 678.99 484.94 690.38 477.47 701.19 469.15 711.47 460.12 721.27 450.53 730.67 440.6 739.77 430.52 748.69 420.53 757.53 410.83 766.43 401.62 780.21 389.18 784.91 385.3" fill="url(#uuunion-grad3)" filter="url(#uuunion-blur2)"></path></svg>